<?xml version="1.0" standalone="no"?>
<!DOCTYPE svg PUBLIC "-//W3C//DTD SVG 20010904//EN"
 "http://www.w3.org/TR/2001/REC-SVG-20010904/DTD/svg10.dtd">
<svg version="1.0" xmlns="http://www.w3.org/2000/svg"
 width="200.000000pt" height="200.000000pt" viewBox="0 0 200.000000 200.000000"
 preserveAspectRatio="xMidYMid meet">
<metadata>
Created by potrace 1.11, written by Peter Selinger 2001-2013
</metadata>
<g transform="translate(0.000000,200.000000) scale(0.100000,-0.100000)"
fill="#000000" stroke="none">
<path d="M845 1884 c-120 -21 -226 -62 -334 -131 l-54 -34 35 -37 c163 -171
254 -394 257 -624 l1 -58 110 0 110 0 0 450 0 450 -27 -2 c-16 -1 -59 -8 -98
-14z"/>
<path d="M1030 1450 l0 -450 110 0 110 0 1 58 c0 88 8 139 35 237 40 142 106
258 216 379 l38 41 -27 22 c-83 68 -289 144 -425 158 l-58 6 0 -451z"/>
<path d="M359 1628 c-149 -150 -233 -336 -255 -565 l-6 -63 295 0 295 0 -3 83
c-8 199 -84 383 -220 535 -26 28 -51 52 -56 52 -4 0 -27 -19 -50 -42z"/>
<path d="M1538 1623 c-86 -93 -155 -214 -191 -338 -25 -82 -29 -106 -32 -197
l-4 -88 296 0 295 0 -6 60 c-12 112 -19 145 -43 220 -28 87 -88 200 -142 267
-52 66 -108 123 -119 123 -5 0 -29 -21 -54 -47z"/>
<path d="M105 930 c-7 -11 31 -184 55 -247 37 -100 152 -283 187 -297 16 -7
142 119 190 190 71 104 126 237 137 331 l3 30 -284 0 c-156 0 -285 -3 -288 -7z"/>
<path d="M722 840 c-42 -179 -151 -355 -296 -478 -27 -23 -27 -24 -10 -43 45
-49 195 -136 294 -169 69 -23 196 -48 233 -46 l22 1 3 416 2 416 -112 0 -113
1 -23 -98z"/>
<path d="M1030 519 l0 -417 53 4 c153 13 343 87 461 180 l59 46 -64 62 c-86
83 -152 172 -199 270 -36 73 -79 215 -80 258 0 14 -15 16 -115 16 l-115 -1 0
-418z"/>
<path d="M1326 901 c31 -168 115 -324 247 -453 l70 -68 30 27 c16 16 48 57 72
93 83 124 126 243 148 406 l5 31 -289 0 -289 0 6 -36z"/>
</g>
</svg>
